<?xml version="1.0" standalone="no"?>
<!DOCTYPE svg PUBLIC "-//W3C//DTD SVG 20010904//EN"
 "http://www.w3.org/TR/2001/REC-SVG-20010904/DTD/svg10.dtd">
<svg version="1.0" xmlns="http://www.w3.org/2000/svg"
 width="900.000000pt" height="900.000000pt" viewBox="0 0 900.000000 900.000000"
 preserveAspectRatio="xMidYMid meet">
<metadata>
Created by potrace 1.10, written by Peter Selinger 2001-2011
</metadata>
<g transform="translate(0.000000,900.000000) scale(0.100000,-0.100000)"
fill="#000000" stroke="none">
<path d="M1458 7561 c-180 -6 -187 -7 -212 -30 -21 -20 -26 -34 -26 -71 0 -25
5 -51 11 -57 8 -8 9 -28 1 -75 -36 -208 -42 -276 -42 -510 0 -134 -7 -513 -15
-843 -8 -330 -15 -755 -15 -945 0 -190 -5 -515 -10 -722 -11 -395 -10 -411 32
-455 32 -34 91 -31 127 5 28 28 28 29 35 192 6 164 25 1106 29 1420 l2 165
645 -3 c355 -2 848 -7 1095 -12 479 -8 500 -7 524 38 6 12 11 40 11 65 0 34
-6 49 -26 68 l-26 24 -386 6 c-213 4 -712 10 -1110 15 -398 4 -724 10 -726 13
-2 3 3 269 11 591 13 537 13 596 -2 715 -9 72 -15 146 -13 165 l3 35 155 6
c85 4 281 7 435 8 154 1 372 6 485 11 113 5 338 14 500 20 558 18 790 42 811
82 14 26 5 35 -54 53 -41 13 -135 18 -432 25 -401 10 -1501 10 -1817 1z"/>
<path d="M7152 7467 c-12 -12 -28 -52 -36 -87 -19 -81 -46 -265 -46 -305 0
-16 -6 -73 -14 -125 -24 -153 -37 -293 -46 -480 -5 -96 -13 -249 -19 -340 -6
-91 -18 -268 -27 -395 -8 -126 -18 -236 -20 -244 -5 -16 -11 -10 -114 109 -59
68 -125 142 -157 175 -7 7 -44 50 -83 95 -39 45 -76 88 -83 95 -32 33 -99 107
-160 178 -37 44 -73 85 -80 92 -32 33 -98 107 -157 175 -59 68 -125 142 -157
175 -7 7 -43 48 -80 92 -58 67 -120 136 -159 177 -5 6 -43 49 -84 96 -70 79
-131 148 -156 174 -5 6 -43 49 -84 96 -124 142 -161 178 -198 196 -32 15 -38
15 -68 1 -18 -9 -39 -27 -47 -39 -16 -24 -47 -211 -47 -275 0 -21 -6 -94 -14
-163 -30 -250 -38 -327 -46 -415 -4 -49 -12 -137 -19 -195 -6 -58 -18 -163
-26 -235 -8 -71 -19 -175 -25 -230 -7 -55 -16 -149 -20 -210 -5 -60 -14 -134
-20 -164 -5 -29 -10 -72 -10 -95 0 -22 -6 -97 -15 -166 -34 -288 -38 -348 -25
-379 18 -45 50 -61 122 -61 128 0 190 91 118 174 l-31 35 11 142 c6 78 13 145
15 150 3 4 10 59 14 121 5 62 14 158 21 213 6 55 17 159 25 230 8 72 19 175
25 230 7 55 15 145 20 200 5 55 13 145 20 200 12 110 33 304 50 460 6 55 16
105 23 112 9 10 23 -1 64 -50 54 -64 91 -105 159 -179 21 -23 68 -76 104 -118
59 -68 125 -142 157 -175 7 -7 43 -48 80 -92 58 -67 120 -136 159 -177 5 -6
43 -49 84 -96 70 -79 131 -148 156 -174 5 -6 43 -49 84 -96 70 -79 131 -148
156 -174 5 -6 43 -49 84 -96 41 -47 90 -102 109 -123 43 -46 66 -73 206 -230
61 -69 122 -132 137 -141 60 -37 131 -5 148 67 4 20 13 117 19 215 6 97 18
272 26 387 9 116 15 242 15 280 0 39 7 144 16 235 23 225 27 1128 5 1153 -18
23 -34 21 -59 -6z"/>
<path d="M3144 3465 l-27 -36 13 -182 c34 -475 -27 -1066 -157 -1517 -30 -105
-85 -265 -94 -274 -5 -6 -9 -16 -9 -23 0 -11 -46 -119 -70 -164 -97 -183 -144
-252 -238 -347 -179 -183 -343 -219 -522 -115 -100 58 -231 208 -298 343 -13
25 -27 52 -32 60 -9 16 -47 100 -75 165 -9 22 -25 69 -37 105 -11 36 -26 80
-34 98 -8 18 -14 40 -14 50 0 9 -6 34 -14 57 -7 22 -21 76 -31 120 -9 44 -21
100 -27 125 -6 25 -14 72 -18 105 -4 33 -12 94 -18 135 -30 207 -36 309 -38
700 -3 395 -4 417 -25 471 -23 64 -43 78 -71 52 -42 -38 -71 -119 -94 -263
-30 -185 -18 -695 22 -950 8 -52 14 -106 14 -120 0 -14 7 -59 15 -100 9 -41
23 -109 31 -150 27 -132 67 -283 90 -338 8 -18 14 -39 14 -47 0 -8 6 -29 14
-47 8 -18 31 -73 51 -121 87 -212 192 -375 324 -506 79 -79 112 -104 185 -140
336 -167 670 -10 936 439 43 71 97 179 125 245 7 17 19 46 27 65 25 57 63 163
78 215 5 17 19 62 30 100 12 39 25 88 29 110 10 53 42 137 50 129 3 -3 9 -83
12 -177 6 -162 14 -297 40 -652 6 -82 15 -224 19 -315 5 -113 12 -176 23 -201
31 -71 118 -79 169 -15 21 25 24 163 7 316 -5 52 -14 176 -19 275 -8 175 -19
342 -41 650 -6 83 -15 227 -19 320 -5 94 -13 235 -19 315 -21 287 -33 478 -41
635 -7 149 -23 245 -49 294 -6 11 -11 33 -11 50 0 17 -11 42 -26 60 -22 27
-32 31 -74 31 -44 0 -52 -3 -76 -35z"/>
</g>
</svg>
